<?xml version="1.0" encoding="UTF-8"?>
<svg version="1.1" xmlns="http://www.w3.org/2000/svg" width="244" height="244">
<path d="M0 0 C2.5625 0.1875 2.5625 0.1875 4.5625 2.1875 C5.94643317 10.87731294 3.23071011 19.02801819 0.5625 27.1875 C2.79840266 26.13762419 5.02541713 25.07340013 7.25 24 C8.18875977 23.56204102 8.18875977 23.56204102 9.14648438 23.11523438 C13.41097107 21.03880892 16.2259332 18.61939728 19.5625 15.1875 C21.875 15.375 21.875 15.375 23.5625 16.1875 C25.12353576 20.35026202 25.12353576 20.35026202 24.5625 23.1875 C19.69087134 28.64655997 13.22541285 32.33196592 6.5625 35.1875 C5.9025 35.1875 5.2425 35.1875 4.5625 35.1875 C5.38562631 37.39848679 5.38562631 37.39848679 7.71484375 38.00390625 C13.39258411 39.52487176 18.67863778 40.54228731 24.56640625 40.68359375 C26.5625 41.1875 26.5625 41.1875 27.96484375 42.97265625 C28.5625 45.1875 28.5625 45.1875 27.6875 47.4375 C27.130625 48.30375 27.130625 48.30375 26.5625 49.1875 C17.10643261 49.74464963 9.4475907 48.44488186 0.5625 45.1875 C1.61237581 47.42340266 2.67659987 49.65041713 3.75 51.875 C4.04197266 52.50083984 4.33394531 53.12667969 4.63476562 53.77148438 C6.71057285 58.03470135 9.12499964 60.85723535 12.5625 64.1875 C12.43415745 66.49766597 12.19644255 67.55355745 10.5625 69.1875 C7.7578125 69.53125 7.7578125 69.53125 4.5625 69.1875 C-0.88926268 64.45358507 -4.61956556 57.76268036 -7.4375 51.1875 C-7.4375 50.5275 -7.4375 49.8675 -7.4375 49.1875 C-9.68999867 50.0220384 -9.68999867 50.0220384 -10.25390625 52.55859375 C-11.84588578 59.10154626 -13.0061095 65.46375837 -13.4375 72.1875 C-16.04332371 73.11815133 -17.07948224 73.33667407 -19.6875 72.25 C-20.265 71.899375 -20.8425 71.54875 -21.4375 71.1875 C-22.06346368 61.69371746 -20.41397055 54.17006292 -17.4375 45.1875 C-25.97725858 49.05692018 -25.97725858 49.05692018 -33.4375 54.625 C-34.9225 55.8934375 -34.9225 55.8934375 -36.4375 57.1875 C-38.625 56.84765625 -38.625 56.84765625 -40.4375 56.1875 C-41.4375 53.625 -41.4375 53.625 -41.4375 50.1875 C-36.82802342 44.12739402 -29.22383661 40.30647289 -22.4375 37.1875 C-21.7775 37.1875 -21.1175 37.1875 -20.4375 37.1875 C-20.4375 36.5275 -20.4375 35.8675 -20.4375 35.1875 C-27.12029697 33.57441108 -33.77566205 32.53374187 -40.59375 31.65234375 C-43.4375 31.1875 -43.4375 31.1875 -44.4375 30.1875 C-44.625 27.75 -44.625 27.75 -44.4375 25.1875 C-41.95306114 22.70306114 -41.12683162 22.86337769 -37.6875 22.8125 C-30.57853363 22.90690858 -24.13641396 24.99690624 -17.4375 27.1875 C-20.74836837 20.0374332 -23.97840926 13.90654744 -29.4375 8.1875 C-28.75 6.25 -28.75 6.25 -27.4375 4.1875 C-25.0625 3.19921875 -25.0625 3.19921875 -22.4375 3.1875 C-16.26373678 7.73597328 -12.20047125 15.16052023 -9.4375 22.1875 C-9.4375 22.8475 -9.4375 23.5075 -9.4375 24.1875 C-8.7775 24.1875 -8.1175 24.1875 -7.4375 24.1875 C-5.68086566 17.13886662 -4.1401873 10.27478873 -3.6484375 3.015625 C-3.32126904 0.18016504 -2.86955162 0.22073474 0 0 Z " fill="#2C1339" transform="translate(133.4375,95.8125)"/>
<path d="M0 0 C2.5625 0.1875 2.5625 0.1875 4.5625 2.1875 C4.7578125 4.7890625 4.7578125 4.7890625 4.6875 7.8125 C4.66945312 8.81539062 4.65140625 9.81828125 4.6328125 10.8515625 C4.60960937 11.62242188 4.58640625 12.39328125 4.5625 13.1875 C3.9025 13.1875 3.2425 13.1875 2.5625 13.1875 C2.4375 5.4375 2.4375 5.4375 3.5625 3.1875 C1.0875 2.6925 1.0875 2.6925 -1.4375 2.1875 C-1.31375 4.0128125 -1.31375 4.0128125 -1.1875 5.875 C-1.1875 12.20478572 -2.7734331 18.45646718 -5.4375 24.1875 C-7.578125 25.56640625 -7.578125 25.56640625 -9.4375 26.1875 C-11.81531697 22.75287548 -13.951536 19.30180023 -15.9375 15.625 C-17.83487289 12.19000076 -19.64041633 8.98458367 -22.4375 6.1875 C-23.7575 6.1875 -25.0775 6.1875 -26.4375 6.1875 C-24.31267158 10.83410282 -21.35721589 14.98594937 -18.5390625 19.23046875 C-15.4375 23.97344257 -15.4375 23.97344257 -15.4375 26.1875 C-16.0975 26.1875 -16.7575 26.1875 -17.4375 26.1875 C-18.61356881 24.35674301 -19.70332382 22.47018918 -20.75 20.5625 C-23.32832062 15.99919613 -25.90256051 12.04379763 -29.4375 8.1875 C-28.75 6.25 -28.75 6.25 -27.4375 4.1875 C-25.10546875 3.3203125 -25.10546875 3.3203125 -22.4375 3.1875 C-16.26373678 7.73597328 -12.20047125 15.16052023 -9.4375 22.1875 C-9.4375 22.8475 -9.4375 23.5075 -9.4375 24.1875 C-8.7775 24.1875 -8.1175 24.1875 -7.4375 24.1875 C-5.68086566 17.13886662 -4.1401873 10.27478873 -3.6484375 3.015625 C-3.32126904 0.18016504 -2.86955162 0.22073474 0 0 Z " fill="#180426" transform="translate(133.4375,95.8125)"/>
<path d="M0 0 C6.43681228 0.51085812 11.95942424 1.72942897 18 4 C17.8515625 5.78515625 17.8515625 5.78515625 17 8 C14.5234375 9.74609375 14.5234375 9.74609375 11.375 11.4375 C10.29347656 12.04207031 9.21195313 12.64664063 8.09765625 13.26953125 C7.07542969 13.84058594 6.05320312 14.41164062 5 15 C-0.07567326 17.90825043 -0.07567326 17.90825043 -2.9375 22.8125 C-2.958125 23.534375 -2.97875 24.25625 -3 25 C1.48931644 22.34537708 5.83439391 19.49787601 10.18359375 16.62109375 C13.06416064 14.96306981 15.82048685 13.94121081 19 13 C19 13.66 19 14.32 19 15 C18.21496094 15.36351562 17.42992188 15.72703125 16.62109375 16.1015625 C9.35059956 19.56493103 9.35059956 19.56493103 3 24.4375 C2.01 25.283125 1.02 26.12875 0 27 C-2.1875 26.66015625 -2.1875 26.66015625 -4 26 C-5 23.4375 -5 23.4375 -5 20 C-0.39052342 13.93989402 7.21366339 10.11897289 14 7 C14.66 7 15.32 7 16 7 C16 6.34 16 5.68 16 5 C10.6822785 3.75799248 5.41798672 2.69165788 0 2 C0 1.34 0 0.68 0 0 Z " fill="#1B0528" transform="translate(97,126)"/>
<path d="M0 0 C0.66 0 1.32 0 2 0 C2.44730469 0.88042969 2.89460937 1.76085937 3.35546875 2.66796875 C3.96003906 3.82941406 4.56460938 4.99085938 5.1875 6.1875 C5.77917969 7.33605469 6.37085938 8.48460937 6.98046875 9.66796875 C8.99437178 12.99071399 11.24531535 15.29305686 14 18 C13.87165745 20.31016597 13.63394255 21.36605745 12 23 C10.00041636 23.04080783 7.99954746 23.04254356 6 23 C6 22.01 6 21.02 6 20 C7.98 20.33 9.96 20.66 12 21 C10.95199219 19.48019531 10.95199219 19.48019531 9.8828125 17.9296875 C8.96317083 16.5783773 8.04392064 15.22680062 7.125 13.875 C6.66480469 13.20984375 6.20460937 12.5446875 5.73046875 11.859375 C3.1252058 8.00811673 1.23125031 4.54288907 0 0 Z " fill="#1D062A" transform="translate(132,142)"/>
<path d="M0 0 C1.32 0.33 2.64 0.66 4 1 C5.56103576 5.16276202 5.56103576 5.16276202 5 8 C0.17446764 13.40740529 -6.32424557 17.30627453 -13 20 C-13.99 19.67 -14.98 19.34 -16 19 C-15.21496094 18.56429687 -14.42992187 18.12859375 -13.62109375 17.6796875 C-7.56754588 14.24810576 -1.88474644 10.9957634 3 6 C3 4.68 3 3.36 3 2 C2.01 1.67 1.02 1.34 0 1 C0 0.67 0 0.34 0 0 Z " fill="#1E072A" transform="translate(153,111)"/>
<path d="M0 0 C6.39205856 0.72362927 12.68027076 1.80343362 19 3 C19 3.66 19 4.32 19 5 C12.11168659 5.62621031 6.41097745 3.35806067 0 1 C0 0.67 0 0.34 0 0 Z " fill="#160423" transform="translate(137,134)"/>
<path d="M0 0 C3.00621497 3.58484484 5.43002885 7.25255049 7.75 11.3125 C8.36359375 12.38113281 8.9771875 13.44976562 9.609375 14.55078125 C10.06828125 15.35902344 10.5271875 16.16726562 11 17 C10.34 17.33 9.68 17.66 9 18 C7.87256334 16.25156882 6.7481458 14.5011906 5.625 12.75 C4.99851563 11.77546875 4.37203125 10.8009375 3.7265625 9.796875 C0 3.760181 0 3.760181 0 0 Z " fill="#1A0627" transform="translate(126,144)"/>
<path d="M0 0 C0.66 0.66 1.32 1.32 2 2 C0.44210317 3.13136586 -1.12153857 4.25482321 -2.6875 5.375 C-3.55761719 6.00148438 -4.42773438 6.62796875 -5.32421875 7.2734375 C-7.83596952 8.89415843 -10.19299187 9.99858088 -13 11 C-13.33 10.34 -13.66 9.68 -14 9 C-13.24074219 8.60167969 -12.48148438 8.20335938 -11.69921875 7.79296875 C-10.70535156 7.26316406 -9.71148437 6.73335938 -8.6875 6.1875 C-7.70136719 5.66542969 -6.71523437 5.14335938 -5.69921875 4.60546875 C-3.38334932 3.2280124 -1.76388999 2.00469409 0 0 Z " fill="#1C0629" transform="translate(151,113)"/>
<path d="M0 0 C3.875 0.875 3.875 0.875 5 2 C5.07226502 3.85287502 5.0838122 5.70833878 5.0625 7.5625 C5.05347656 8.57441406 5.04445312 9.58632812 5.03515625 10.62890625 C5.02355469 11.41136719 5.01195312 12.19382812 5 13 C4.34 13 3.68 13 3 13 C2.875 5.25 2.875 5.25 4 3 C2.35 2.67 0.7 2.34 -1 2 C-0.67 1.34 -0.34 0.68 0 0 Z " fill="#1C0428" transform="translate(133,96)"/>
<path d="M0 0 C0.66 0 1.32 0 2 0 C2 3.63 2 7.26 2 11 C2.66 11 3.32 11 4 11 C4 11.66 4 12.32 4 13 C2.68 12.67 1.36 12.34 0 12 C0 8.04 0 4.08 0 0 Z " fill="#1E052C" transform="translate(112,155)"/>
<path d="M0 0 C0.66 0 1.32 0 2 0 C2 2.97 2 5.94 2 9 C1.34 8.67 0.68 8.34 0 8 C0 5.36 0 2.72 0 0 Z " fill="#FDCD2E" transform="translate(242,235)"/>
<path d="M0 0 C0.66 0.33 1.32 0.66 2 1 C1.34 2.98 0.68 4.96 0 7 C-0.66 7 -1.32 7 -2 7 C-2 5.02 -2 3.04 -2 1 C-1.34 0.67 -0.68 0.34 0 0 Z " fill="#230831" transform="translate(160,138)"/>
<path d="M0 0 C0.66 0 1.32 0 2 0 C2 0.99 2 1.98 2 3 C3.32 3 4.64 3 6 3 C6 3.66 6 4.32 6 5 C4.35 5 2.7 5 1 5 C0.67 3.35 0.34 1.7 0 0 Z " fill="#190325" transform="translate(89,122)"/>
</svg>
